<?xml version="1.0" encoding="UTF-8" standalone="no"?>
<svg
   xmlns:dc="http://purl.org/dc/elements/1.1/"
   xmlns:cc="http://creativecommons.org/ns#"
   xmlns:rdf="http://www.w3.org/1999/02/22-rdf-syntax-ns#"
   xmlns:svg="http://www.w3.org/2000/svg"
   xmlns="http://www.w3.org/2000/svg"
   viewBox="0 0 951.375 961.52502"
   height="961.52502"
   width="951.375"
   xml:space="preserve"
   version="1.1"
   id="svg2"><metadata
     id="metadata8"><rdf:RDF><cc:Work
         rdf:about=""><dc:format>image/svg+xml</dc:format><dc:type
           rdf:resource="http://purl.org/dc/dcmitype/StillImage" /><dc:title></dc:title></cc:Work></rdf:RDF></metadata><defs
     id="defs6" /><g
     transform="matrix(1.25,0,0,-1.25,0,961.525)"
     id="g10"><g
       transform="scale(0.1,0.1)"
       id="g12"><path
         id="path14"
         style="fill:#254aa5;fill-opacity:1;fill-rule:nonzero;stroke:none"
         d="m 0,2618.14 7610.95,0 0,5074.02 -7610.95,0 0,-5074.02 z" /><path
         id="path16"
         style="fill:#fff200;fill-opacity:1;fill-rule:nonzero;stroke:none"
         d="m 3809.97,7113.11 62.59,-192.83 202.82,0.02 -164.08,-119.17 62.71,-192.85 -164.04,119.24 -164.03,-119.24 62.69,192.85 -164.07,119.15 202.73,0 62.68,192.83" /><path
         id="path18"
         style="fill:#fff200;fill-opacity:1;fill-rule:nonzero;stroke:none"
         d="m 2971.14,6884.49 66.26,-191.65 202.73,3.82 -161.79,-122.22 66.29,-191.63 -166.23,116.16 -161.76,-122.31 59.04,193.98 -166.29,116.05 202.74,3.77 59.01,194.03" /><path
         id="path20"
         style="fill:#fff200;fill-opacity:1;fill-rule:nonzero;stroke:none"
         d="m 2092.4,6086.9 202.72,-3.73 66.11,191.7 59.12,-193.96 202.79,-3.6 -166.24,-116.16 59.21,-194 -161.83,122.2 -166.16,-116.27 66.15,191.66 -161.87,122.16" /><path
         id="path22"
         style="fill:#fff200;fill-opacity:1;fill-rule:nonzero;stroke:none"
         d="m 1861.32,5239.12 202.77,-0.87 63.41,192.6 61.84,-193.13 202.77,-0.77 -164.56,-118.51 61.92,-193.15 -163.54,119.93 -164.48,-118.51 63.46,192.54 -163.59,119.87" /><path
         id="path24"
         style="fill:#fff200;fill-opacity:1;fill-rule:nonzero;stroke:none"
         d="m 2183.01,4085.53 63.44,192.65 -163.59,119.75 202.78,-0.77 63.34,192.6 61.93,-193.13 202.79,-0.78 -164.55,-118.5 61.95,-193.13 -163.6,119.93 -164.49,-118.62" /><path
         id="path26"
         style="fill:#fff200;fill-opacity:1;fill-rule:nonzero;stroke:none"
         d="m 2798,3477.07 62.23,192.94 -164.33,118.81 202.76,0.43 62.17,192.96 63.09,-192.7 202.79,0.53 -163.8,-119.54 63.16,-192.69 L 2961.74,3596.6 2798,3477.07" /><path
         id="path28"
         style="fill:#fff200;fill-opacity:1;fill-rule:nonzero;stroke:none"
         d="m 3651.03,3247.79 65.07,192.18 -162.61,121.11 202.76,-2.49 65.01,192.04 60.24,-193.57 202.76,-2.53 -165.52,-117.1 60.36,-193.65 -162.58,121.24 -165.49,-117.23" /><path
         id="path30"
         style="fill:#fff200;fill-opacity:1;fill-rule:nonzero;stroke:none"
         d="m 4809.05,3474.48 -164.53,118.55 -163.49,-120.11 61.74,193.18 -164.67,118.31 202.81,1.05 61.68,193.18 63.57,-192.61 202.76,0.99 -163.44,-119.92 63.57,-192.62" /><path
         id="path32"
         style="fill:#fff200;fill-opacity:1;fill-rule:nonzero;stroke:none"
         d="m 5422.92,4079.91 -163.66,119.75 -164.4,-118.66 63.34,192.64 -163.69,119.72 202.81,-0.7 63.2,192.65 62,-193.04 202.81,-0.66 -164.45,-118.62 62.04,-193.08" /><path
         id="path34"
         style="fill:#fff200;fill-opacity:1;fill-rule:nonzero;stroke:none"
         d="m 5751.41,5229.03 -164.14,-119.17 62.74,-192.91 -164.1,119.25 -164,-119.14 62.69,192.8 -164.05,119.17 202.8,0 62.56,192.8 62.7,-192.8 202.8,0" /><path
         id="path36"
         style="fill:#fff200;fill-opacity:1;fill-rule:nonzero;stroke:none"
         d="m 5525.01,6069.97 -165.22,-117.45 60.73,-193.52 -162.82,120.91 -165.23,-117.54 64.64,192.15 -162.83,120.89 202.73,-2.09 64.61,192.17 60.63,-193.45 202.76,-2.07" /><path
         id="path38"
         style="fill:#fff200;fill-opacity:1;fill-rule:nonzero;stroke:none"
         d="m 4929.86,6691.35 -164.8,-118.2 61.64,-193.18 -163.32,120.11 -164.73,-118.27 63.78,192.51 -163.4,120.07 202.76,-1.18 63.79,192.5 61.47,-193.2 202.81,-1.16" /><path
         id="path40"
         style="fill:#231f20;fill-opacity:1;fill-rule:nonzero;stroke:none"
         d="m 192.953,1922.97 131.289,0 0,-48.26 -131.289,0 0,-184.69 174.297,0 0,-48.21 -230.668,0 0,494.73 226.227,0 0,-48.22 -169.856,0 0,-165.35" /><path
         id="path42"
         style="fill:#231f20;fill-opacity:1;fill-rule:nonzero;stroke:none"
         d="m 614.117,1641.81 -46.738,0 0,43.77 c -10.383,-20 -28.164,-52.66 -80.082,-52.66 -14.871,0 -51.926,3.7 -69.758,34.09 -8.891,16.35 -11.859,37.1 -11.859,94.94 l 0,245.54 51.179,0 0,-248.45 c 0,-37.88 0,-79.42 45.973,-79.42 51.93,0 60.121,55.66 60.121,92.76 l 0,235.11 51.164,0 0,-365.68" /><path
         id="path44"
         style="fill:#231f20;fill-opacity:1;fill-rule:nonzero;stroke:none"
         d="m 701.5,2007.49 46.73,0 0,-72.71 c 6.676,23.76 23.739,80.12 76.383,80.12 7.414,0 11.141,-0.79 15.582,-2.22 l 0,-57.1 c -87.519,8.14 -87.519,-74.94 -87.519,-141.69 l 0,-172.08 -51.176,0 0,365.68" /><path
         id="path46"
         style="fill:#231f20;fill-opacity:1;fill-rule:nonzero;stroke:none"
         d="m 934.297,1943.66 c -17.781,-33.3 -18.551,-100.84 -18.551,-120.88 0,-108.99 21.52,-146.09 63.809,-146.09 37.105,0 63.775,28.91 63.775,139.43 0,117.17 -20.01,156.5 -63.775,156.5 -24.477,0 -36.336,-12.6 -45.258,-28.96 z m 165.423,-122.32 c 0,-113.53 -32.64,-188.42 -120.907,-188.42 -91.25,0 -119.415,84.57 -119.415,189.86 0,54.93 10.383,193.57 120.157,193.57 106.815,0 120.165,-128.26 120.165,-195.01" /><path
         id="path48"
         style="fill:#231f20;fill-opacity:1;fill-rule:nonzero;stroke:none"
         d="m 1219.72,1787.21 c 0,-27.47 0,-108.3 62.3,-108.3 43,0 64.52,31.13 64.52,143.87 0,121.67 -27.42,147.61 -62.29,147.61 -61.56,0 -64.53,-88.23 -64.53,-116.44 l 0,-66.74 z m -51.18,220.28 47.45,0 0,-59.33 c 6.7,19.27 22.28,65.95 79.39,65.95 105.3,0 107.54,-152.01 107.54,-187.62 0,-77.91 -16.31,-191.35 -109.76,-191.35 -48.98,0 -64.54,28.21 -73.44,43.77 l 0,-161 -51.18,0 0,489.58" /><path
         id="path50"
         style="fill:#231f20;fill-opacity:1;fill-rule:nonzero;stroke:none"
         d="m 1635.67,1860.67 c -1.48,41.45 -2.98,111.95 -61.56,111.95 -57.87,0 -63.06,-75.64 -65.28,-111.95 l 126.84,0 z m -128.35,-42.34 c 0,-38.53 0,-141.64 72.71,-141.64 45.24,0 57.12,47.47 63.05,73.41 l 45.26,-11.85 c -14.87,-60.08 -39.33,-105.33 -112.77,-105.33 -81.57,0 -122.34,59.38 -122.34,186.95 0,91.19 26.67,196.48 121.62,196.48 116.45,0 117.17,-140.16 117.17,-198.02 l -184.7,0" /><path
         id="path52"
         style="fill:#231f20;fill-opacity:1;fill-rule:nonzero;stroke:none"
         d="m 1749.73,2007.49 51.19,0 0,-365.68 -51.19,0 0,365.68 z m 53.42,129.05 0,-63.04 -55.64,0 0,63.04 55.64,0" /><path
         id="path54"
         style="fill:#231f20;fill-opacity:1;fill-rule:nonzero;stroke:none"
         d="m 2024.13,1913.29 c -7.46,26.72 -17.83,59.33 -57.88,59.33 -29.66,0 -50.44,-18.58 -50.44,-50.44 0,-37.1 23.74,-49.71 57.11,-66.75 74.18,-38.58 102.37,-52.65 102.37,-114.22 0,-69.75 -44.52,-108.29 -106.81,-108.29 -99.4,0 -111.26,77.86 -114.96,102.36 l 45.24,11.86 c 5.2,-25.19 13.35,-70.45 68.98,-70.45 34.12,0 54.89,22.29 54.89,56.37 0,40.81 -18.56,50.4 -74.92,78.6 -46.72,23.72 -82.31,49.01 -82.31,105.33 0,40.07 22.96,99.36 100.11,99.36 82.33,0 96.44,-65.22 102.36,-91.94 l -43.74,-11.12" /><path
         id="path56"
         style="fill:#231f20;fill-opacity:1;fill-rule:nonzero;stroke:none"
         d="m 2128.56,2136.54 51.19,0 0,-308.53 100.89,179.48 54.87,0 -80.82,-135.02 91.94,-230.66 -60.8,0 -63.8,178.75 -42.28,-66.01 0,-112.74 -51.19,0 0,494.73" /><path
         id="path58"
         style="fill:#231f20;fill-opacity:1;fill-rule:nonzero;stroke:none"
         d="m 2430.34,1740.47 c 0,-10.38 0,-63.78 48.19,-63.78 23.74,0 43.75,14.83 53.42,34.09 14.82,28.22 17.79,57.15 17.79,116.44 -55.63,1.48 -119.4,3.02 -119.4,-86.75 z m 131.26,-98.66 c -7.42,22.98 -7.42,40.02 -7.42,53.41 -11.13,-26.68 -26.69,-62.3 -83.07,-62.3 -77.87,0 -95.66,64.52 -95.66,108.29 0,54.14 25.19,99.41 74.89,116.45 34.88,11.85 62.3,11.11 99.4,9.68 0,62.98 0.72,106.76 -54.89,106.76 -45.97,0 -55.63,-32.64 -63.05,-68.97 l -46.72,12.61 c 7.42,31.86 24.49,98.61 114.22,98.61 29.67,0 59.33,-6.63 81.59,-30.4 18.53,-20 21.5,-53.4 21.5,-111.98 l 0,-147.58 c 0,-53.41 2.21,-68.27 5.19,-84.58 l -45.98,0" /><path
         id="path60"
         style="fill:#231f20;fill-opacity:1;fill-rule:nonzero;stroke:none"
         d="m 2895.89,2136.54 0,-63.04 -55.61,0 0,63.04 55.61,0 z m -2.22,-129.05 0,-378.27 c 0,-89.77 -12.6,-116.44 -87.51,-116.44 l -28.19,0 0,47.47 25.21,0 c 35.6,0 39.31,10.37 39.31,71.19 l 0,376.05 51.18,0" /><path
         id="path62"
         style="fill:#231f20;fill-opacity:1;fill-rule:nonzero;stroke:none"
         d="m 3037.5,1943.66 c -17.79,-33.3 -18.56,-100.84 -18.56,-120.88 0,-108.99 21.51,-146.09 63.8,-146.09 37.08,0 63.79,28.91 63.79,139.43 0,117.17 -20.02,156.5 -63.79,156.5 -24.47,0 -36.33,-12.6 -45.24,-28.96 z m 165.39,-122.32 c 0,-113.53 -32.63,-188.42 -120.89,-188.42 -91.22,0 -119.41,84.57 -119.41,189.86 0,54.93 10.37,193.57 120.15,193.57 106.79,0 120.15,-128.26 120.15,-195.01" /><path
         id="path64"
         style="fill:#231f20;fill-opacity:1;fill-rule:nonzero;stroke:none"
         d="m 3271.71,2007.49 46.73,0 0,-72.71 c 6.7,23.76 23.74,80.12 76.4,80.12 7.42,0 11.14,-0.79 15.58,-2.22 l 0,-57.1 c -87.51,8.14 -87.51,-74.94 -87.51,-141.69 l 0,-172.08 -51.2,0 0,365.68" /><path
         id="path66"
         style="fill:#231f20;fill-opacity:1;fill-rule:nonzero;stroke:none"
         d="m 3612.83,1874.71 c 0,34.12 -11.15,95.68 -63.06,95.68 -56.38,0 -63.79,-76.37 -63.79,-141.69 0,-18.52 0,-83.79 17.07,-119.35 10.37,-20.8 23.74,-32.66 48.21,-32.66 19.28,0 34.86,8.89 45.98,25.94 14.82,20.76 15.59,48.95 15.59,73.46 l 0,98.62 z m 51.16,-232.9 -44.47,0 0,47.49 c -8.18,-17.84 -25.25,-54.16 -80.86,-54.16 -98.65,0 -109.03,122.37 -109.03,182.5 0,146.08 56.35,196.47 114.22,196.47 48.21,0 62.3,-33.35 68.98,-48.16 l 0,170.59 51.16,0 0,-494.73" /><path
         id="path68"
         style="fill:#231f20;fill-opacity:1;fill-rule:nonzero;stroke:none"
         d="m 3802.52,1781.23 c 0,-17.04 0,-57.07 17.84,-80.82 5.91,-8.11 20.01,-23.72 41.52,-23.72 54.87,0 67.47,70.45 67.47,150.53 0,94.22 -14.05,143.17 -61.54,143.17 -28.19,0 -65.29,-20.79 -65.29,-126.07 l 0,-63.09 z m -51.17,355.31 51.17,0 0,-180.96 c 6.7,17.04 23.03,58.53 75.68,58.53 106.06,0 107.55,-140.85 107.55,-185.41 0,-43.02 -4.48,-115.7 -40.08,-158.68 -16.32,-20.05 -44.46,-34.88 -74.89,-34.88 -42.28,0 -66.75,20.76 -79.37,51.14 l -12.59,-44.47 -27.47,0 0,494.73" /><path
         id="path70"
         style="fill:#231f20;fill-opacity:1;fill-rule:nonzero;stroke:none"
         d="m 4054.56,2007.49 46.73,0 0,-72.71 c 6.66,23.76 23.73,80.12 76.38,80.12 7.45,0 11.14,-0.79 15.59,-2.22 l 0,-57.1 c -87.52,8.14 -87.52,-74.94 -87.52,-141.69 l 0,-172.08 -51.18,0 0,365.68" /><path
         id="path72"
         style="fill:#231f20;fill-opacity:1;fill-rule:nonzero;stroke:none"
         d="m 4434.25,1641.81 -46.77,0 0,43.77 c -10.38,-20 -28.19,-52.66 -80.11,-52.66 -14.83,0 -51.93,3.7 -69.67,34.09 -8.91,16.35 -11.9,37.1 -11.9,94.94 l 0,245.54 51.16,0 0,-248.45 c 0,-37.88 0,-79.42 45.99,-79.42 51.93,0 60.08,55.66 60.08,92.76 l 0,235.11 51.22,0 0,-365.68" /><path
         id="path74"
         style="fill:#231f20;fill-opacity:1;fill-rule:nonzero;stroke:none"
         d="m 4521.62,2136.54 51.19,0 0,-308.53 100.87,179.48 54.89,0 -80.87,-135.02 91.98,-230.66 -60.82,0 -63.82,178.75 -42.23,-66.01 0,-112.74 -51.19,0 0,494.73" /><path
         id="path76"
         style="fill:#231f20;fill-opacity:1;fill-rule:nonzero;stroke:none"
         d="m 4922.75,1913.29 c -7.46,26.72 -17.83,59.33 -57.86,59.33 -29.68,0 -50.43,-18.58 -50.43,-50.44 0,-37.1 23.71,-49.71 57.1,-66.75 74.17,-38.58 102.33,-52.65 102.33,-114.22 0,-69.75 -44.48,-108.29 -106.78,-108.29 -99.39,0 -111.28,77.86 -114.96,102.36 l 45.27,11.86 c 5.18,-25.19 13.33,-70.45 68.95,-70.45 34.09,0 54.85,22.29 54.85,56.37 0,40.81 -18.52,50.4 -74.9,78.6 -46.7,23.72 -82.35,49.01 -82.35,105.33 0,40.07 23.06,99.36 100.18,99.36 82.31,0 96.39,-65.22 102.37,-91.94 l -43.77,-11.12" /><path
         id="path78"
         style="fill:#231f20;fill-opacity:1;fill-rule:nonzero;stroke:none"
         d="m 5030.95,1965.21 -46.04,0 0,42.28 46.04,0 0,29.7 c 0,45.2 0,108.29 83.09,108.29 13.3,0 25.2,-2.23 39.24,-3.75 l 0,-44.51 c -14.04,3 -21.5,4.49 -30.38,4.49 -40.82,0 -40.82,-36.36 -40.82,-64.52 l 0,-29.7 57.16,0 0,-42.28 -57.16,0 0,-323.4 -51.13,0 0,323.4" /><path
         id="path80"
         style="fill:#231f20;fill-opacity:1;fill-rule:nonzero;stroke:none"
         d="m 5234.8,1943.66 c -17.78,-33.3 -18.56,-100.84 -18.56,-120.88 0,-108.99 21.54,-146.09 63.82,-146.09 37.05,0 63.77,28.91 63.77,139.43 0,117.17 -20.05,156.5 -63.77,156.5 -24.51,0 -36.36,-12.6 -45.26,-28.96 z m 165.41,-122.32 c 0,-113.53 -32.66,-188.42 -120.89,-188.42 -91.25,0 -119.45,84.57 -119.45,189.86 0,54.93 10.42,193.57 120.19,193.57 106.81,0 120.15,-128.26 120.15,-195.01" /><path
         id="path82"
         style="fill:#231f20;fill-opacity:1;fill-rule:nonzero;stroke:none"
         d="m 5469.09,2007.49 46.69,0 0,-55.66 c 6.67,16.34 25.97,64.52 80.87,64.52 31.87,0 55.62,-14.82 67.45,-37.8 12.63,-22.23 12.63,-63.04 12.63,-104.58 l 0,-232.16 -51.18,0 0,232.16 c 0,45.98 0,94.94 -45.96,94.94 -53.43,0 -59.36,-73.46 -59.36,-116.49 l 0,-210.61 -51.14,0 0,365.68" /><path
         id="path84"
         style="fill:#231f20;fill-opacity:1;fill-rule:nonzero;stroke:none"
         d="m 5924.27,1874.71 c 0,34.12 -11.07,95.68 -63,95.68 -56.37,0 -63.82,-76.37 -63.82,-141.69 0,-18.52 0,-83.79 17.05,-119.35 10.37,-20.8 23.77,-32.66 48.21,-32.66 19.31,0 34.88,8.89 46.04,25.94 14.83,20.76 15.52,48.95 15.52,73.46 l 0,98.62 z m 51.22,-232.9 -44.55,0 0,47.49 c -8.15,-17.84 -25.2,-54.16 -80.83,-54.16 -98.66,0 -109.03,122.37 -109.03,182.5 0,146.08 56.37,196.47 114.23,196.47 48.21,0 62.33,-33.35 68.96,-48.16 l 0,170.59 51.22,0 0,-494.73" /><path
         id="path86"
         style="fill:#231f20;fill-opacity:1;fill-rule:nonzero;stroke:none"
         d="m 6226.78,1860.67 c -1.52,41.45 -2.96,111.95 -61.6,111.95 -57.81,0 -63,-75.64 -65.22,-111.95 l 126.82,0 z m -128.35,-42.34 c 0,-38.53 0,-141.64 72.77,-141.64 45.2,0 57.07,47.47 62.99,73.41 l 45.21,-11.85 c -14.82,-60.08 -39.23,-105.33 -112.7,-105.33 -81.61,0 -122.41,59.38 -122.41,186.95 0,91.19 26.73,196.48 121.67,196.48 116.45,0 117.19,-140.16 117.19,-198.02 l -184.72,0" /><path
         id="path88"
         style="fill:#231f20;fill-opacity:1;fill-rule:nonzero;stroke:none"
         d="m 6340.91,2007.49 46.7,0 0,-55.66 c 6.67,16.34 25.98,64.52 80.87,64.52 31.92,0 55.62,-14.82 67.48,-37.8 12.6,-22.23 12.6,-63.04 12.6,-104.58 l 0,-232.16 -51.17,0 0,232.16 c 0,45.98 0,94.94 -45.96,94.94 -53.45,0 -59.37,-73.46 -59.37,-116.49 l 0,-210.61 -51.15,0 0,365.68" /><path
         id="path90"
         style="fill:#231f20;fill-opacity:1;fill-rule:nonzero;stroke:none"
         d="m 6793.14,1965.21 -46.05,0 0,42.28 46.05,0 0,29.7 c 0,45.2 0,108.29 83,108.29 13.39,0 25.29,-2.23 39.32,-3.75 l 0,-44.51 c -14.03,3 -21.48,4.49 -30.39,4.49 -40.8,0 -40.8,-36.36 -40.8,-64.52 l 0,-29.7 57.16,0 0,-42.28 -57.16,0 0,-323.4 -51.13,0 0,323.4" /><path
         id="path92"
         style="fill:#231f20;fill-opacity:1;fill-rule:nonzero;stroke:none"
         d="m 7092.64,2068.27 c -20.75,0 -36.33,16.34 -36.33,36.4 0,20.01 16.36,36.37 36.33,36.37 21.53,0 36.36,-18.64 36.36,-36.37 0,-17.83 -14.08,-36.4 -36.36,-36.4 z m -95.65,-124.61 c -17.8,-33.3 -18.57,-100.84 -18.57,-120.88 0,-108.99 21.54,-146.09 63.82,-146.09 37.05,0 63.78,28.91 63.78,139.43 0,117.17 -20.06,156.5 -63.78,156.5 -24.51,0 -36.41,-12.6 -45.25,-28.96 z m -5.19,124.61 c -20.75,0 -36.36,16.34 -36.36,36.4 0,20.01 16.3,36.37 36.36,36.37 21.49,0 36.32,-18.64 36.32,-36.37 0,-17.83 -14.04,-36.4 -36.32,-36.4 z m 170.59,-246.93 c 0,-113.53 -32.65,-188.42 -120.89,-188.42 -91.24,0 -119.45,84.57 -119.45,189.86 0,54.93 10.37,193.57 120.19,193.57 106.77,0 120.15,-128.26 120.15,-195.01" /><path
         id="path94"
         style="fill:#231f20;fill-opacity:1;fill-rule:nonzero;stroke:none"
         d="m 7231.27,2007.49 46.69,0 0,-72.71 c 6.66,23.76 23.71,80.12 76.43,80.12 7.36,0 11.1,-0.79 15.52,-2.22 l 0,-57.1 c -87.5,8.14 -87.5,-74.94 -87.5,-141.69 l 0,-172.08 -51.14,0 0,365.68" /><path
         id="path96"
         style="fill:#231f20;fill-opacity:1;fill-rule:nonzero;stroke:none"
         d="m 337.496,891.012 51.1797,0 0,494.719 -51.1797,0 0,-494.719 z" /><path
         id="path98"
         style="fill:#231f20;fill-opacity:1;fill-rule:nonzero;stroke:none"
         d="m 512.488,989.621 c 0,-10.379 0,-63.73 48.196,-63.73 23.742,0 43.754,14.808 53.433,34.089 14.821,28.2 17.781,57.15 17.781,116.44 -55.625,1.48 -119.41,3.01 -119.41,-86.799 z m 131.266,-98.609 c -7.406,22.98 -7.406,40.019 -7.406,53.367 -11.137,-26.649 -26.703,-62.258 -83.071,-62.258 -77.89,0 -95.675,64.508 -95.675,108.289 0,54.14 25.203,99.39 74.902,116.44 34.875,11.81 62.297,11.12 99.394,9.64 0,63.03 0.719,106.8 -54.886,106.8 -45.973,0 -55.625,-32.65 -63.067,-68.96 l -46.703,12.59 c 7.406,31.87 24.473,98.62 114.219,98.62 29.668,0 59.332,-6.62 81.59,-30.44 18.547,-19.95 21.492,-53.35 21.492,-111.98 l 0,-147.53 c 0,-53.41 2.219,-68.277 5.184,-84.578 l -45.973,0" /><path
         id="path100"
         style="fill:#231f20;fill-opacity:1;fill-rule:nonzero;stroke:none"
         d="m 766.719,1256.69 46.734,0 0,-55.68 c 6.688,16.36 25.961,64.53 80.848,64.53 31.91,0 55.656,-14.83 67.508,-37.79 12.601,-22.28 12.601,-63.05 12.601,-104.63 l 0,-232.108 -51.183,0 0,232.108 c 0,46.02 0,94.94 -45.969,94.94 -53.406,0 -59.336,-73.41 -59.336,-116.44 l 0,-210.608 -51.203,0 0,365.678" /><path
         id="path102"
         style="fill:#231f20;fill-opacity:1;fill-rule:nonzero;stroke:none"
         d="m 1222.02,1123.89 c 0,34.09 -11.14,95.7 -63.07,95.7 -56.35,0 -63.8,-76.42 -63.8,-141.69 0,-18.53 0,-83.83 17.09,-119.4 10.38,-20.801 23.73,-32.609 48.19,-32.609 19.3,0 34.87,8.89 45.98,25.941 14.86,20.738 15.61,48.948 15.61,73.448 l 0,98.61 z m 51.15,-232.878 -44.49,0 0,47.468 c -8.17,-17.82 -25.22,-54.14 -80.85,-54.14 -98.66,0 -109.03,122.32 -109.03,182.5 0,146.08 56.35,196.47 114.22,196.47 48.22,0 62.3,-33.35 69,-48.16 l 0,170.58 51.15,0 0,-494.718" /><path
         id="path104"
         style="fill:#231f20;fill-opacity:1;fill-rule:nonzero;stroke:none"
         d="m 1496.31,1162.44 c -7.45,26.72 -17.82,59.37 -57.87,59.37 -29.67,0 -50.44,-18.58 -50.44,-50.43 0,-37.1 23.74,-49.71 57.12,-66.75 74.17,-38.58 102.36,-52.7 102.36,-114.22 0,-69.75 -44.52,-108.289 -106.81,-108.289 -99.4,0 -111.26,77.859 -114.96,102.348 l 45.24,11.82 c 5.19,-25.199 13.35,-70.398 68.98,-70.398 34.1,0 54.88,22.238 54.88,56.359 0,40.77 -18.55,50.4 -74.92,78.61 -46.71,23.71 -82.31,48.96 -82.31,105.28 0,40.1 22.98,99.4 100.12,99.4 82.35,0 96.43,-65.23 102.36,-91.94 l -43.75,-11.16" /><path
         id="path106"
         style="fill:#231f20;fill-opacity:1;fill-rule:nonzero;stroke:none"
         d="m 1651.91,1030.43 c 0,-17.05 0,-57.121 17.81,-80.84 5.92,-8.141 20.03,-23.699 41.53,-23.699 54.88,0 67.49,70.398 67.49,150.529 0,94.17 -14.07,143.17 -61.54,143.17 -28.19,0 -65.29,-20.8 -65.29,-126.12 l 0,-63.04 z m -51.18,355.3 51.18,0 0,-180.97 c 6.68,17.05 23,58.55 75.66,58.55 106.06,0 107.55,-140.9 107.55,-185.41 0,-43.03 -4.47,-115.701 -40.06,-158.728 -16.32,-20.012 -44.49,-34.832 -74.9,-34.832 -42.29,0 -66.75,20.711 -79.39,51.129 l -12.6,-44.457 -27.44,0 0,494.718" /><path
         id="path108"
         style="fill:#231f20;fill-opacity:1;fill-rule:nonzero;stroke:none"
         d="m 1909.9,1256.69 59.35,-252.24 63.01,252.24 46.01,0 -103.84,-400.561 c -14.85,-56.359 -34.88,-97.18 -82.35,-97.18 -13.32,0 -21.49,2.231 -29.65,4.461 l 0,46.039 c 11.86,-3.711 17.79,-5.238 25.96,-5.238 20.02,0 26.7,5.238 42.28,69.75 l 13.33,54.84 -86.75,327.889 52.65,0" /><path
         id="path110"
         style="fill:#231f20;fill-opacity:1;fill-rule:nonzero;stroke:none"
         d="m 2162.7,1138.72 c 0,-30.43 6.67,-80.82 51.91,-80.82 43.02,0 49.71,42.29 49.71,83.04 0,47.48 -12.62,80.87 -49.71,80.87 -45.24,0 -51.91,-50.43 -51.91,-83.09 z m -17.81,-284.068 c 0,-41.55 31.15,-60.082 75.66,-60.082 10.39,0 75.67,0 75.67,58.641 0,28.121 -17.82,37.801 -37.09,42.238 -6.67,2.231 -23,3.711 -88.28,8.903 -9.63,-6.672 -25.96,-18.582 -25.96,-49.7 z m 195.8,411.628 c -31.88,1.48 -45.22,-2.97 -47.44,-42.99 17.79,-25.19 25.2,-56.37 25.2,-87.5 0,-73.44 -42.27,-121.67 -106.79,-121.67 -17.82,0 -26.73,3.01 -34.86,6.66 -25.96,-9.63 -25.96,-31.159 -25.96,-34.811 0,-34.137 31.15,-36.379 101.62,-41.59 25.2,-2.227 95.67,-7.379 95.67,-87.508 0,-86.75 -76.4,-106.07 -132.77,-106.07 -83.81,0 -122.37,42.289 -122.37,91.988 0,48.961 34.11,68.274 47.47,75.641 -34.88,20.789 -37.09,51.922 -37.09,61.601 0,41.539 31.86,57.069 43,63.039 -11.14,11.85 -36.33,37.79 -36.33,97.87 0,71.98 39.29,124.6 103.1,124.6 27.45,0 41.55,-8.85 50.42,-14.83 1.5,21.51 4.45,68.29 77.13,61.61 l 0,-46.04" /><path
         id="path112"
         style="fill:#231f20;fill-opacity:1;fill-rule:nonzero;stroke:none"
         d="m 2549,1123.89 c 0,34.09 -11.14,95.7 -63.06,95.7 -56.37,0 -63.79,-76.42 -63.79,-141.69 0,-18.53 0,-83.83 17.07,-119.4 10.38,-20.801 23.74,-32.609 48.22,-32.609 19.27,0 34.86,8.89 45.97,25.941 14.82,20.738 15.59,48.948 15.59,73.448 l 0,98.61 z m 51.16,-232.878 -44.49,0 0,47.468 c -8.17,-17.82 -25.22,-54.14 -80.82,-54.14 -98.66,0 -109.03,122.32 -109.03,182.5 0,146.08 56.33,196.47 114.21,196.47 48.2,0 62.3,-33.35 68.97,-48.16 l 0,170.58 51.16,0 0,-494.718" /><path
         id="path114"
         style="fill:#231f20;fill-opacity:1;fill-rule:nonzero;stroke:none"
         d="m 2823.29,1162.44 c -7.45,26.72 -17.82,59.37 -57.87,59.37 -29.65,0 -50.45,-18.58 -50.45,-50.43 0,-37.1 23.74,-49.71 57.11,-66.75 74.18,-38.58 102.37,-52.7 102.37,-114.22 0,-69.75 -44.52,-108.289 -106.82,-108.289 -99.39,0 -111.25,77.859 -114.94,102.348 l 45.23,11.82 c 5.19,-25.199 13.35,-70.398 68.97,-70.398 34.12,0 54.89,22.238 54.89,56.359 0,40.77 -18.55,50.4 -74.92,78.61 -46.71,23.71 -82.31,48.96 -82.31,105.28 0,40.1 22.97,99.4 100.12,99.4 82.36,0 96.43,-65.23 102.36,-91.94 l -43.74,-11.16" /><path
         id="path116"
         style="fill:#231f20;fill-opacity:1;fill-rule:nonzero;stroke:none"
         d="m 3130.97,891.012 -46.75,0 0,43.769 c -10.37,-20.051 -28.16,-52.66 -80.07,-52.66 -14.86,0 -51.93,3.649 -69.75,34.09 -8.91,16.34 -11.87,37.098 -11.87,94.939 l 0,245.54 51.2,0 0,-248.49 c 0,-37.848 0,-79.399 45.98,-79.399 51.91,0 60.09,55.668 60.09,92.769 l 0,235.12 51.17,0 0,-365.678" /><path
         id="path118"
         style="fill:#231f20;fill-opacity:1;fill-rule:nonzero;stroke:none"
         d="m 3181.25,1256.69 41.52,0 0,91.93 51.2,5.94 0,-97.87 62.3,0 0,-42.33 -62.3,0 0,-198.76 c 0,-60.069 5.19,-76.381 44.49,-76.381 12.63,0 16.33,0.691 27.45,2.23 l 0,-44.508 c -6.7,-2.968 -18.55,-7.421 -43.75,-7.421 -76.4,0 -79.39,54.14 -79.39,126.08 l 0,198.76 -41.52,0 0,42.33" /><path
         id="path120"
         style="fill:#231f20;fill-opacity:1;fill-rule:nonzero;stroke:none"
         d="m 3351.01,1256.69 53.43,0 63.02,-301.94 60.83,301.94 50.42,0 -86.03,-365.678 -55.63,0 -86.04,365.678" /><path
         id="path122"
         style="fill:#231f20;fill-opacity:1;fill-rule:nonzero;stroke:none"
         d="m 3786.29,1109.82 c -1.48,41.5 -2.99,111.99 -61.56,111.99 -57.86,0 -63.06,-75.64 -65.28,-111.99 l 126.84,0 z m -128.33,-42.29 c 0,-38.58 0,-141.639 72.7,-141.639 45.23,0 57.12,47.418 63.04,73.41 l 45.26,-11.903 c -14.85,-60.066 -39.32,-105.277 -112.76,-105.277 -81.57,0 -122.36,59.328 -122.36,186.929 0,91.16 26.68,196.49 121.64,196.49 116.44,0 117.19,-140.17 117.19,-198.01 l -184.71,0" /><path
         id="path124"
         style="fill:#231f20;fill-opacity:1;fill-rule:nonzero;stroke:none"
         d="m 4059.09,1138.03 c -5.18,37.05 -14.11,83.78 -60.07,83.78 -43.75,0 -60.84,-38.54 -60.84,-148.35 0,-90.519 8.18,-147.569 60.84,-147.569 34.11,0 52.66,24.398 60.07,83.779 l 48.22,-5.93 c -8.17,-51.908 -23,-121.619 -107.55,-121.619 -98.63,0 -117.93,91.188 -117.93,183.179 0,99.4 19.3,200.24 117.93,200.24 68.22,0 99.38,-48.92 107.55,-118.67 l -48.22,-8.84" /><path
         id="path126"
         style="fill:#231f20;fill-opacity:1;fill-rule:nonzero;stroke:none"
         d="m 4165.8,1385.73 51.16,0 0,-308.57 100.86,179.53 54.9,0 -80.87,-135.02 92,-230.658 -60.84,0 -63.82,178.738 -42.23,-66.01 0,-112.728 -51.16,0 0,494.718" /><path
         id="path128"
         style="fill:#231f20;fill-opacity:1;fill-rule:nonzero;stroke:none"
         d="m 4431.17,891.012 51.1172,0 0,494.719 -51.1172,0 0,-494.719 z" /><path
         id="path130"
         style="fill:#231f20;fill-opacity:1;fill-rule:nonzero;stroke:none"
         d="m 4569.83,1256.69 51.14,0 0,-365.678 -51.14,0 0,365.678 z m 53.37,129.04 0,-63.03 -55.63,0 0,63.03 55.63,0" /><path
         id="path132"
         style="fill:#231f20;fill-opacity:1;fill-rule:nonzero;stroke:none"
         d="m 4708.43,1256.69 46.68,0 0,-55.68 c 6.72,16.36 26,64.53 80.89,64.53 31.9,0 55.62,-14.83 67.47,-37.79 12.61,-22.28 12.61,-63.05 12.61,-104.63 l 0,-232.108 -51.19,0 0,232.108 c 0,46.02 0,94.94 -45.99,94.94 -53.4,0 -59.32,-73.41 -59.32,-116.44 l 0,-210.608 -51.15,0 0,365.678" /><path
         id="path134"
         style="fill:#231f20;fill-opacity:1;fill-rule:nonzero;stroke:none"
         d="m 5042.77,1138.72 c 0,-30.43 6.67,-80.82 51.91,-80.82 43.03,0 49.71,42.29 49.71,83.04 0,47.48 -12.61,80.87 -49.71,80.87 -45.24,0 -51.91,-50.43 -51.91,-83.09 z m -17.76,-284.068 c 0,-41.55 31.14,-60.082 75.65,-60.082 10.38,0 75.68,0 75.68,58.641 0,28.121 -17.83,37.801 -37.1,42.238 -6.67,2.231 -23.01,3.711 -88.28,8.903 -9.63,-6.672 -25.95,-18.582 -25.95,-49.7 z m 195.81,411.628 c -31.87,1.48 -45.27,-2.97 -47.49,-42.99 17.84,-25.19 25.2,-56.37 25.2,-87.5 0,-73.44 -42.24,-121.67 -106.77,-121.67 -17.82,0 -26.71,3.01 -34.87,6.66 -25.94,-9.63 -25.94,-31.159 -25.94,-34.811 0,-34.137 31.17,-36.379 101.62,-41.59 25.2,-2.227 95.61,-7.379 95.61,-87.508 0,-86.75 -76.34,-106.07 -132.71,-106.07 -83.83,0 -122.37,42.289 -122.37,91.988 0,48.961 34.09,68.274 47.47,75.641 -34.87,20.789 -37.1,51.922 -37.1,61.601 0,41.539 31.88,57.069 42.99,63.039 -11.11,11.85 -36.32,37.79 -36.32,97.87 0,71.98 39.33,124.6 103.11,124.6 27.42,0 41.54,-8.85 50.44,-14.83 1.48,21.51 4.45,68.29 77.13,61.61 l 0,-46.04" /><path
         id="path136"
         style="fill:#231f20;fill-opacity:1;fill-rule:nonzero;stroke:none"
         d="m 5328.92,971.09 0,-80.078 -64.51,0 0,80.078 64.51,0 z m 0,285.6 0,-80.13 -64.51,0 0,80.13 64.51,0" /><path
         id="path138"
         style="fill:#231f20;fill-opacity:1;fill-rule:nonzero;stroke:none"
         d="m 5633.66,1172.12 131.27,0 0,-48.23 -131.27,0 0,-184.671 174.26,0 0,-48.207 -230.67,0 0,494.718 226.21,0 0,-48.22 -169.8,0 0,-165.39" /><path
         id="path140"
         style="fill:#231f20;fill-opacity:1;fill-rule:nonzero;stroke:none"
         d="m 6054.84,891.012 -46.78,0 0,43.769 c -10.37,-20.051 -28.16,-52.66 -80.09,-52.66 -14.81,0 -51.91,3.649 -69.7,34.09 -8.9,16.34 -11.86,37.098 -11.86,94.939 l 0,245.54 51.13,0 0,-248.49 c 0,-37.848 0,-79.399 45.99,-79.399 51.93,0 60.08,55.668 60.08,92.769 l 0,235.12 51.23,0 0,-365.678" /><path
         id="path142"
         style="fill:#231f20;fill-opacity:1;fill-rule:nonzero;stroke:none"
         d="m 6142.16,1256.69 46.74,0 0,-72.72 c 6.66,23.72 23.71,80.08 76.42,80.08 7.36,0 11.12,-0.74 15.52,-2.22 l 0,-57.07 c -87.5,8.16 -87.5,-74.92 -87.5,-141.67 l 0,-172.078 -51.18,0 0,365.678" /><path
         id="path144"
         style="fill:#231f20;fill-opacity:1;fill-rule:nonzero;stroke:none"
         d="m 6375,1192.86 c -17.78,-33.35 -18.56,-100.84 -18.56,-120.89 0,-108.978 21.49,-146.079 63.83,-146.079 37.05,0 63.77,28.859 63.77,139.409 0,117.19 -20.05,156.51 -63.77,156.51 -24.51,0 -36.41,-12.59 -45.27,-28.95 z m 165.42,-122.37 c 0,-113.478 -32.66,-188.369 -120.94,-188.369 -91.25,0 -119.41,84.52 -119.41,189.849 0,54.89 10.37,193.57 120.2,193.57 106.76,0 120.15,-128.3 120.15,-195.05" /><path
         id="path146"
         style="fill:#231f20;fill-opacity:1;fill-rule:nonzero;stroke:none"
         d="m 6660.43,1036.4 c 0,-27.51 0,-108.291 62.3,-108.291 43.03,0 64.51,31.133 64.51,143.861 0,121.68 -27.42,147.62 -62.28,147.62 -61.57,0 -64.53,-88.24 -64.53,-116.44 l 0,-66.75 z m -51.19,220.29 47.48,0 0,-59.38 c 6.67,19.31 22.23,66 79.35,66 105.33,0 107.55,-152.01 107.55,-187.63 0,-77.899 -16.31,-191.34 -109.78,-191.34 -48.91,0 -64.52,28.16 -73.41,43.769 l 0,-161 -51.19,0 0,489.581" /><path
         id="path148"
         style="fill:#231f20;fill-opacity:1;fill-rule:nonzero;stroke:none"
         d="m 6948.77,989.621 c 0,-10.379 0,-63.73 48.22,-63.73 23.77,0 43.72,14.808 53.4,34.089 14.83,28.2 17.84,57.15 17.84,116.44 -55.69,1.48 -119.46,3.01 -119.46,-86.799 z m 131.26,-98.609 c -7.41,22.98 -7.41,40.019 -7.41,53.367 -11.11,-26.649 -26.68,-62.258 -83.04,-62.258 -77.91,0 -95.7,64.508 -95.7,108.289 0,54.14 25.25,99.39 74.94,116.44 34.79,11.81 62.31,11.12 99.41,9.64 0,63.03 0.69,106.8 -54.94,106.8 -45.99,0 -55.63,-32.65 -63.03,-68.96 l -46.75,12.59 c 7.42,31.87 24.46,98.62 114.22,98.62 29.65,0 59.35,-6.62 81.62,-30.44 18.48,-19.95 21.49,-53.35 21.49,-111.98 l 0,-147.53 c 0,-53.41 2.22,-68.277 5.19,-84.578 l -46,0" /><path
         id="path150"
         style="fill:#231f20;fill-opacity:1;fill-rule:nonzero;stroke:none"
         d="m 154.742,505.879 51.203,0 0,-365.719 -51.203,0 0,365.719 z m 53.426,129.043 0,-63.07 -55.605,0 0,63.07 55.605,0" /><path
         id="path152"
         style="fill:#231f20;fill-opacity:1;fill-rule:nonzero;stroke:none"
         d="m 293.379,505.879 46.758,0 0,-55.668 c 6.664,16.34 25.933,64.519 80.82,64.519 31.914,0 55.652,-14.832 67.512,-37.789 12.625,-22.289 12.625,-63.089 12.625,-104.628 l 0,-232.153 -51.207,0 0,232.153 c 0,45.976 0,94.949 -45.977,94.949 -53.379,0 -59.332,-73.41 -59.332,-116.442 l 0,-210.66 -51.199,0 0,365.719" /><path
         id="path154"
         style="fill:#231f20;fill-opacity:1;fill-rule:nonzero;stroke:none"
         d="m 540.234,505.879 53.383,0 63.067,-301.938 60.836,301.938 50.418,0 -86.012,-365.719 -55.653,0 -86.039,365.719" /><path
         id="path156"
         style="fill:#231f20;fill-opacity:1;fill-rule:nonzero;stroke:none"
         d="m 975.496,359.02 c -1.457,41.492 -2.961,111.992 -61.531,111.992 -57.875,0 -63.067,-75.692 -65.289,-111.992 l 126.82,0 z M 847.195,316.68 c 0,-38.528 0,-141.641 72.7,-141.641 45.226,0 57.109,47.473 63.058,73.461 l 45.227,-11.918 C 1013.34,176.52 988.863,131.27 915.426,131.27 c -81.574,0 -122.356,59.382 -122.356,186.929 0,91.211 26.688,196.531 121.637,196.531 116.443,0 117.163,-140.21 117.163,-198.05 l -184.675,0" /><path
         id="path158"
         style="fill:#231f20;fill-opacity:1;fill-rule:nonzero;stroke:none"
         d="m 1225.34,411.621 c -7.45,26.731 -17.83,59.391 -57.87,59.391 -29.66,0 -50.44,-18.582 -50.44,-50.492 0,-37.059 23.74,-49.7 57.12,-66.739 74.17,-38.539 102.35,-52.66 102.35,-114.222 0,-69.719 -44.51,-108.289 -106.8,-108.289 -99.4,0 -111.26,77.89 -114.94,102.402 l 45.23,11.82 c 5.19,-25.211 13.34,-70.453 68.97,-70.453 34.11,0 54.88,22.274 54.88,56.363 0,40.809 -18.55,50.45 -74.92,78.598 -46.71,23.77 -82.3,49.02 -82.3,105.332 0,40.059 22.97,99.398 100.11,99.398 82.35,0 96.44,-65.269 102.37,-91.949 l -43.76,-11.16" /><path
         id="path160"
         style="fill:#231f20;fill-opacity:1;fill-rule:nonzero;stroke:none"
         d="m 1292.72,505.879 41.52,0 0,91.941 51.19,5.93 0,-97.871 62.3,0 0,-42.316 -62.3,0 0,-198.813 c 0,-60.031 5.19,-76.328 44.52,-76.328 12.58,0 16.28,0.687 27.41,2.23 l 0,-44.562 c -6.67,-2.918 -18.55,-7.371 -43.74,-7.371 -76.38,0 -79.38,54.14 -79.38,126.031 l 0,198.813 -41.52,0 0,42.316" /><path
         id="path162"
         style="fill:#231f20;fill-opacity:1;fill-rule:nonzero;stroke:none"
         d="m 1670.15,359.02 c -1.47,41.492 -2.98,111.992 -61.55,111.992 -57.88,0 -63.07,-75.692 -65.28,-111.992 l 126.83,0 z m -128.32,-42.34 c 0,-38.528 0,-141.641 72.7,-141.641 45.22,0 57.11,47.473 63.06,73.461 l 45.23,-11.918 C 1707.98,176.52 1683.49,131.27 1610.06,131.27 c -81.57,0 -122.35,59.382 -122.35,186.929 0,91.211 26.67,196.531 121.63,196.531 116.44,0 117.18,-140.21 117.18,-198.05 l -184.69,0" /><path
         id="path164"
         style="fill:#231f20;fill-opacity:1;fill-rule:nonzero;stroke:none"
         d="m 1784.23,505.879 46.73,0 0,-72.75 c 6.69,23.75 23.74,80.121 76.4,80.121 7.42,0 11.12,-0.738 15.58,-2.219 l 0,-57.07 c -87.54,8.148 -87.54,-74.988 -87.54,-141.719 l 0,-172.082 -51.17,0 0,365.719" /><path
         id="path166"
         style="fill:#231f20;fill-opacity:1;fill-rule:nonzero;stroke:none"
         d="m 1997.01,238.809 c 0,-10.368 0,-63.77 48.21,-63.77 23.73,0 43.75,14.82 53.42,34.121 14.82,28.172 17.78,57.121 17.78,116.461 -55.61,1.43 -119.41,2.969 -119.41,-86.812 z M 2128.3,140.16 c -7.43,22.981 -7.43,40.07 -7.43,53.403 -11.11,-26.684 -26.69,-62.293 -83.07,-62.293 -77.89,0 -95.68,64.511 -95.68,108.289 0,54.14 25.23,99.402 74.91,116.453 34.87,11.847 62.29,11.148 99.39,9.679 0,62.981 0.74,106.75 -54.89,106.75 -45.96,0 -55.6,-32.601 -63.06,-68.961 l -46.69,12.602 c 7.41,31.91 24.46,98.648 114.23,98.648 29.63,0 59.33,-6.628 81.56,-30.429 18.55,-19.961 21.52,-53.399 21.52,-111.988 l 0,-147.583 c 0,-53.359 2.21,-68.269 5.19,-84.57 l -45.98,0" /><path
         id="path168"
         style="fill:#231f20;fill-opacity:1;fill-rule:nonzero;stroke:none"
         d="m 2251.26,505.879 46.74,0 0,-72.75 c 6.67,23.75 23.74,80.121 76.38,80.121 7.41,0 11.13,-0.738 15.58,-2.219 l 0,-57.07 c -87.52,8.148 -87.52,-74.988 -87.52,-141.719 l 0,-172.082 -51.18,0 0,365.719" /><path
         id="path170"
         style="fill:#231f20;fill-opacity:1;fill-rule:nonzero;stroke:none"
         d="m 2585.6,505.879 51.2,0 0,-365.719 -51.2,0 0,365.719 z m 53.43,129.043 0,-63.07 -55.66,0 0,63.07 55.66,0" /><path
         id="path172"
         style="fill:#231f20;fill-opacity:1;fill-rule:nonzero;stroke:none"
         d="m 2882.16,140.16 51.1797,0 0,494.762 -51.1797,0 0,-494.762 z" /><path
         id="path174"
         style="fill:#231f20;fill-opacity:1;fill-rule:nonzero;stroke:none"
         d="m 3057.13,238.809 c 0,-10.368 0,-63.77 48.2,-63.77 23.74,0 43.77,14.82 53.42,34.121 14.82,28.172 17.79,57.121 17.79,116.461 -55.63,1.43 -119.41,2.969 -119.41,-86.812 z M 3188.4,140.16 c -7.41,22.981 -7.41,40.07 -7.41,53.403 -11.15,-26.684 -26.71,-62.293 -83.08,-62.293 -77.88,0 -95.66,64.511 -95.66,108.289 0,54.14 25.19,99.402 74.89,116.453 34.86,11.847 62.3,11.148 99.4,9.679 0,62.981 0.72,106.75 -54.88,106.75 -45.98,0 -55.66,-32.601 -63.07,-68.961 l -46.71,12.602 c 7.41,31.91 24.48,98.648 114.22,98.648 29.67,0 59.33,-6.628 81.59,-30.429 18.53,-19.961 21.48,-53.399 21.48,-111.988 l 0,-147.583 c 0,-53.359 2.24,-68.269 5.2,-84.57 l -45.97,0" /><path
         id="path176"
         style="fill:#231f20;fill-opacity:1;fill-rule:nonzero;stroke:none"
         d="m 3311.38,505.879 46.74,0 0,-55.668 c 6.68,16.34 25.96,64.519 80.84,64.519 31.92,0 55.66,-14.832 67.51,-37.789 12.6,-22.289 12.6,-63.089 12.6,-104.628 l 0,-232.153 -51.18,0 0,232.153 c 0,45.976 0,94.949 -45.97,94.949 -53.39,0 -59.33,-73.41 -59.33,-116.442 l 0,-210.66 -51.21,0 0,365.719" /><path
         id="path178"
         style="fill:#231f20;fill-opacity:1;fill-rule:nonzero;stroke:none"
         d="m 3766.68,373.09 c 0,34.09 -11.14,95.699 -63.07,95.699 -56.35,0 -63.8,-76.418 -63.8,-141.738 0,-18.481 0,-83.789 17.09,-119.371 10.38,-20.789 23.73,-32.641 48.19,-32.641 19.29,0 34.88,8.941 46,25.981 14.84,20.75 15.59,48.91 15.59,73.41 l 0,98.66 z m 51.15,-232.93 -44.48,0 0,47.469 c -8.18,-17.789 -25.23,-54.137 -80.86,-54.137 -98.66,0 -109.03,122.367 -109.03,182.488 0,146.129 56.35,196.532 114.22,196.532 48.23,0 62.3,-33.352 69,-48.172 l 0,170.582 51.15,0 0,-494.762" /><path
         id="path180"
         style="fill:#231f20;fill-opacity:1;fill-rule:nonzero;stroke:none"
         d="m 4040.95,411.621 c -7.42,26.731 -17.82,59.391 -57.87,59.391 -29.66,0 -50.44,-18.582 -50.44,-50.492 0,-37.059 23.74,-49.7 57.11,-66.739 74.17,-38.539 102.36,-52.66 102.36,-114.222 0,-69.719 -44.51,-108.289 -106.8,-108.289 -99.4,0 -111.26,77.89 -114.96,102.402 l 45.24,11.82 c 5.19,-25.211 13.35,-70.453 68.98,-70.453 34.11,0 54.88,22.274 54.88,56.363 0,40.809 -18.55,50.45 -74.91,78.598 -46.72,23.77 -82.31,49.02 -82.31,105.332 0,40.059 22.97,99.398 100.11,99.398 82.33,0 96.44,-65.269 102.37,-91.949 l -43.76,-11.16" /><path
         id="path182"
         style="fill:#231f20;fill-opacity:1;fill-rule:nonzero;stroke:none"
         d="m 4196.57,279.609 c 0,-17.078 0,-57.097 17.84,-80.82 5.91,-8.137 19.98,-23.75 41.47,-23.75 54.92,0 67.51,70.453 67.51,150.582 0,94.16 -14.06,143.168 -61.53,143.168 -28.19,0 -65.29,-20.797 -65.29,-126.129 l 0,-63.051 z m -51.16,355.313 51.16,0 0,-180.961 c 6.7,17.051 22.98,58.551 75.66,58.551 106.09,0 107.52,-140.903 107.52,-185.461 0,-42.981 -4.44,-115.649 -40.01,-158.68 -16.35,-20.062 -44.53,-34.879 -74.95,-34.879 -42.26,0 -66.73,20.75 -79.34,51.18 l -12.59,-44.512 -27.45,0 0,494.762" /><path
         id="path184"
         style="fill:#231f20;fill-opacity:1;fill-rule:nonzero;stroke:none"
         d="m 4454.57,505.879 59.29,-252.25 63.08,252.25 46,0 L 4519.1,105.32 c -14.84,-56.4098 -34.89,-97.16766 -82.36,-97.16766 -13.35,0 -21.49,2.21876 -29.65,4.43746 l 0,46.0118 c 11.86,-3.6797 17.84,-5.1993 25.98,-5.1993 20.02,0 26.73,5.1993 42.26,69.7067 l 13.33,54.891 -86.79,327.879 52.7,0" /><path
         id="path186"
         style="fill:#231f20;fill-opacity:1;fill-rule:nonzero;stroke:none"
         d="m 4707.34,387.922 c 0,-30.442 6.67,-80.84 51.92,-80.84 43.03,0 49.71,42.258 49.71,83.047 0,47.48 -12.61,80.883 -49.71,80.883 -45.25,0 -51.92,-50.492 -51.92,-83.09 z m -17.75,-284.07 c 0,-41.5512 31.09,-60.0825 75.64,-60.0825 10.39,0 75.64,0 75.64,58.6015 0,28.16 -17.78,37.789 -37.06,42.281 -6.71,2.227 -23.05,3.657 -88.27,8.899 -9.69,-6.672 -25.95,-18.582 -25.95,-49.699 z m 195.8,411.617 c -31.92,1.48 -45.26,-2.957 -47.48,-43.028 17.84,-25.191 25.2,-56.359 25.2,-87.5 0,-73.41 -42.25,-121.632 -106.77,-121.632 -17.84,0 -26.73,2.972 -34.88,6.671 -25.99,-9.679 -25.99,-31.171 -25.99,-34.871 0,-34.089 31.22,-36.32 101.63,-41.546 25.2,-2.223 95.65,-7.372 95.65,-87.493 C 4892.75,19.2617 4816.41,0 4760,0 c -83.78,0 -122.32,42.2422 -122.32,91.9492 0,48.9998 34.09,68.2618 47.42,75.6718 -34.83,20.801 -37.05,51.918 -37.05,61.559 0,41.539 31.87,57.109 42.98,63.09 -11.11,11.8 -36.31,37.789 -36.31,97.859 0,71.98 39.32,124.601 103.06,124.601 27.42,0 41.54,-8.851 50.49,-14.832 1.44,21.504 4.44,68.282 77.12,61.575 l 0,-46.004" /><path
         id="path188"
         style="fill:#231f20;fill-opacity:1;fill-rule:nonzero;stroke:none"
         d="m 5093.6,373.09 c 0,34.09 -11.09,95.699 -63,95.699 -56.37,0 -63.82,-76.418 -63.82,-141.738 0,-18.481 0,-83.789 17.04,-119.371 10.37,-20.789 23.76,-32.641 48.26,-32.641 19.27,0 34.88,8.941 45.99,25.981 14.83,20.75 15.53,48.91 15.53,73.41 l 0,98.66 z m 51.22,-232.93 -44.51,0 0,47.469 c -8.15,-17.789 -25.24,-54.137 -80.82,-54.137 -98.71,0 -109.08,122.367 -109.08,182.488 0,146.129 56.37,196.532 114.21,196.532 48.22,0 62.36,-33.352 68.98,-48.172 l 0,170.582 51.22,0 0,-494.762" /><path
         id="path190"
         style="fill:#231f20;fill-opacity:1;fill-rule:nonzero;stroke:none"
         d="m 5367.94,411.621 c -7.45,26.731 -17.82,59.391 -57.84,59.391 -29.69,0 -50.45,-18.582 -50.45,-50.492 0,-37.059 23.72,-49.7 57.11,-66.739 74.16,-38.539 102.37,-52.66 102.37,-114.222 0,-69.719 -44.52,-108.289 -106.82,-108.289 -99.39,0 -111.24,77.89 -114.96,102.402 l 45.26,11.82 c 5.14,-25.211 13.34,-70.453 68.96,-70.453 34.09,0 54.89,22.274 54.89,56.363 0,40.809 -18.56,50.45 -74.94,78.598 -46.69,23.77 -82.35,49.02 -82.35,105.332 0,40.059 23.06,99.398 100.18,99.398 82.32,0 96.39,-65.269 102.36,-91.949 l -43.77,-11.16" /><path
         id="path192"
         style="fill:#231f20;fill-opacity:1;fill-rule:nonzero;stroke:none"
         d="m 5528.76,442.059 c -17.82,-33.348 -18.56,-100.887 -18.56,-120.887 0,-109.031 21.48,-146.133 63.82,-146.133 37.02,0 63.74,28.902 63.74,139.41 0,117.242 -20.01,156.563 -63.74,156.563 -24.49,0 -36.4,-12.61 -45.26,-28.953 z m 165.38,-122.368 c 0,-113.531 -32.62,-188.421 -120.89,-188.421 -91.26,0 -119.43,84.57 -119.43,189.902 0,54.891 10.42,193.558 120.2,193.558 106.77,0 120.12,-128.3 120.12,-195.039" /><path
         id="path194"
         style="fill:#231f20;fill-opacity:1;fill-rule:nonzero;stroke:none"
         d="m 5763,505.879 46.74,0 0,-58.629 c 6.68,19.301 21.5,67.48 79.36,67.48 60.07,0 68.26,-53.41 71.19,-71.929 5.22,20.008 19.26,71.929 79.33,71.929 26.72,0 51.22,-12.589 66.06,-34.832 16.3,-24.507 17.04,-61.609 17.04,-98.707 l 0,-241.031 -51.14,0 0,238.813 c 0,65.308 -14.82,88.289 -46.78,88.289 -56.32,0 -56.32,-84.539 -56.32,-127.52 l 0,-199.582 -51.24,0 0,229.231 c 0,54.839 -2.21,97.871 -43.72,97.871 -51.17,0 -59.33,-60.082 -59.33,-94.172 l 0,-232.93 -51.19,0 0,365.719" /><path
         id="path196"
         style="fill:#231f20;fill-opacity:1;fill-rule:nonzero;stroke:none"
         d="m 6204.85,505.879 46.7,0 0,-72.75 c 6.71,23.75 23.75,80.121 76.42,80.121 7.41,0 11.16,-0.738 15.56,-2.219 l 0,-57.07 c -87.49,8.148 -87.49,-74.988 -87.49,-141.719 l 0,-172.082 -51.19,0 0,365.719" /><path
         id="path198"
         style="fill:#231f20;fill-opacity:1;fill-rule:nonzero;stroke:none"
         d="m 6511.11,611.172 c 0,15.558 -12.64,28.207 -28.16,28.207 -15.6,0 -28.21,-12.649 -28.21,-28.207 0,-17.051 13.3,-28.953 28.21,-28.953 14.83,0 28.16,11.902 28.16,28.953 z m -90.54,0 c 0,34.117 28.19,61.551 62.38,61.551 34.1,0 62.3,-27.434 62.3,-61.551 0,-37.84 -31.22,-62.301 -62.3,-62.301 -31.18,0 -62.38,24.461 -62.38,62.301 z m -2.92,-372.363 c 0,-10.368 0,-63.77 48.21,-63.77 23.75,0 43.72,14.82 53.4,34.121 14.83,28.172 17.84,57.121 17.84,116.461 -55.68,1.43 -119.45,2.969 -119.45,-86.812 z m 131.26,-98.649 c -7.41,22.981 -7.41,40.07 -7.41,53.403 -11.11,-26.684 -26.68,-62.293 -83.05,-62.293 -77.9,0 -95.69,64.511 -95.69,108.289 0,54.14 25.24,99.402 74.94,116.453 34.79,11.847 62.3,11.148 99.4,9.679 0,62.981 0.7,106.75 -54.94,106.75 -45.99,0 -55.62,-32.601 -63.02,-68.961 l -46.75,12.602 c 7.42,31.91 24.5,98.648 114.22,98.648 29.69,0 59.33,-6.628 81.61,-30.429 18.57,-19.961 21.49,-53.399 21.49,-111.988 l 0,-147.583 c 0,-53.359 2.23,-68.269 5.24,-84.57 l -46.04,0" /><path
         id="path200"
         style="fill:#231f20;fill-opacity:1;fill-rule:nonzero;stroke:none"
         d="m 6836.51,373.09 c 0,34.09 -11.08,95.699 -62.99,95.699 -56.38,0 -63.82,-76.418 -63.82,-141.738 0,-18.481 0,-83.789 17.04,-119.371 10.37,-20.789 23.76,-32.641 48.22,-32.641 19.31,0 34.87,8.941 46.03,25.981 14.83,20.75 15.52,48.91 15.52,73.41 l 0,98.66 z m 51.23,-232.93 -44.56,0 0,47.469 c -8.15,-17.789 -25.2,-54.137 -80.82,-54.137 -98.66,0 -109.03,122.367 -109.03,182.488 0,146.129 56.37,196.532 114.21,196.532 48.22,0 62.34,-33.352 68.97,-48.172 l 0,170.582 51.23,0 0,-494.762" /><path
         id="path202"
         style="fill:#231f20;fill-opacity:1;fill-rule:nonzero;stroke:none"
         d="m 7139.03,359.02 c -1.53,41.492 -2.97,111.992 -61.61,111.992 -57.8,0 -62.99,-75.692 -65.22,-111.992 l 126.83,0 z m -128.36,-42.34 c 0,-38.528 0,-141.641 72.72,-141.641 45.25,0 57.11,47.473 63.04,73.461 l 45.21,-11.918 C 7176.82,176.52 7152.41,131.27 7078.95,131.27 c -81.61,0 -122.42,59.382 -122.42,186.929 0,91.211 26.73,196.531 121.68,196.531 116.44,0 117.18,-140.21 117.18,-198.05 l -184.72,0" /><path
         id="path204"
         style="fill:#231f20;fill-opacity:1;fill-rule:nonzero;stroke:none"
         d="m 7253.15,505.879 46.7,0 0,-55.668 c 6.67,16.34 25.98,64.519 80.87,64.519 31.86,0 55.62,-14.832 67.44,-37.789 12.6,-22.289 12.6,-63.089 12.6,-104.628 l 0,-232.153 -51.14,0 0,232.153 c 0,45.976 0,94.949 -45.95,94.949 -53.45,0 -59.38,-73.41 -59.38,-116.442 l 0,-210.66 -51.14,0 0,365.719" /></g></g></svg>